<?xml version="1.0" encoding="UTF-8"?>
<svg id="Layer_1" xmlns="http://www.w3.org/2000/svg" version="1.1" viewBox="0 0 24 24">
  <!-- Generator: Adobe Illustrator 29.3.0, SVG Export Plug-In . SVG Version: 2.1.0 Build 146)  -->
  <defs>
    <style>
      .st0 {
        fill: none;
      }
    </style>
  </defs>
  <rect class="st0" width="24" height="24"/>
  <path d="M10.24,14.02c-.44,0-.84.15-1.12.44l-1.34,1.33V4.93c0-.3-.12-.6-.35-.83-.28-.28-.67-.44-1.09-.44h-.02c-.77.01-1.42.59-1.41,1.26v10.85l-1.33-1.3c-.3-.32-.7-.5-1.09-.5h0c-.36,0-.72.13-1,.36-.28.23-.45.52-.48.82-.03.33.12.68.42.95h0s3.85,3.8,3.85,3.8c.39.37.81.42,1.03.42.17,0,.74-.03,1.16-.46l2.64-2.6-.05.02,1.23-1.18c.37-.35.47-.87.27-1.31-.18-.38-.64-.77-1.29-.78ZM21.08,7.48h-8.96c-.5,0-.99-.21-1.33-.59s-.5-.86-.45-1.36h0c.08-.91.93-1.62,1.92-1.62h8.95c.5,0,.98.21,1.32.58.34.37.51.86.46,1.37-.08.9-.92,1.61-1.91,1.61ZM21.22,13.78h-6.56c-.98,0-1.78-.8-1.78-1.78s.8-1.78,1.78-1.78h6.56c.98,0,1.78.8,1.78,1.78s-.8,1.78-1.78,1.78ZM22.54,17.1c.34.37.51.86.46,1.37-.08.91-.93,1.62-1.92,1.62h-4.78c-.5,0-.98-.21-1.32-.58-.34-.37-.5-.86-.46-1.37.08-.91.92-1.62,1.92-1.62h4.78c.5,0,.98.21,1.32.58Z"/>
</svg>