<?xml version="1.0" encoding="UTF-8"?>
<svg id="Layer_1" xmlns="http://www.w3.org/2000/svg" version="1.1" viewBox="0 0 24 24">
  <!-- Generator: Adobe Illustrator 29.3.0, SVG Export Plug-In . SVG Version: 2.1.0 Build 146)  -->
  <defs>
    <style>
      .st0 {
        fill: none;
      }
    </style>
  </defs>
  <rect class="st0" width="24" height="24"/>
  <path d="M21.3,7.6h-6.9c-.9,0-1.5-.7-1.5-1.5h0c0-.9.7-1.5,1.5-1.5h6.9c.9,0,1.5.7,1.5,1.5h0c0,.9-.7,1.5-1.5,1.5ZM22.8,11.7h0c0-.9-.7-1.5-1.5-1.5h-6.2c-.9,0-1.5.7-1.5,1.5h0c0,.9.7,1.5,1.5,1.5h6.2c.9,0,1.5-.7,1.5-1.5ZM22.8,17.2h0c0-.9-.7-1.5-1.5-1.5h-2.8c-.9,0-1.5.7-1.5,1.5h0c0,.9.7,1.5,1.5,1.5h2.8c.9,0,1.5-.7,1.5-1.5ZM2.9,18.8c-.4,0-.7-.1-.9-.3s-.4-.5-.4-.8,0-.6.2-1.1l3.5-10.1c.2-.7.5-1.1.8-1.4s.8-.4,1.4-.4,1,.1,1.4.4.6.8.8,1.4l3.5,10.1c.1.4.2.8.2,1.1s-.1.7-.4.9-.6.3-1,.3-.7-.1-.9-.3-.4-.6-.5-1l-.8-2.4h-4.9l-.8,2.4c-.1.5-.3.8-.5,1s-.5.3-.9.3ZM5.8,13h3.7l-1.8-5.7h-.1l-1.8,5.7Z"/>
</svg>