<?xml version="1.0" encoding="UTF-8"?>
<svg id="Layer_1" xmlns="http://www.w3.org/2000/svg" version="1.1" viewBox="0 0 24 24">
  <!-- Generator: Adobe Illustrator 29.3.0, SVG Export Plug-In . SVG Version: 2.1.0 Build 146)  -->
  <defs>
    <style>
      .st0 {
        fill: none;
      }
    </style>
  </defs>
  <rect class="st0" width="24" height="24"/>
  <path d="M14.9,12l4.9-4.9c.7-.7.7-1.8,0-2.5h0c-.7-.7-1.8-.7-2.5,0l-4.9,4.9-4.9-4.9c-.7-.7-1.8-.7-2.5,0h0c-.7.7-.7,1.9,0,2.5l4.9,4.9-4.9,4.9c-.7.7-.7,1.8,0,2.5h0c.7.7,1.8.7,2.5,0l4.9-4.9,4.9,4.9c.7.7,1.8.7,2.5,0h0c.7-.7.7-1.9,0-2.5l-4.9-4.9Z"/>
</svg>