<?xml version="1.0" encoding="UTF-8"?>
<svg id="Layer_1" xmlns="http://www.w3.org/2000/svg" version="1.1" viewBox="0 0 24 24">
  <!-- Generator: Adobe Illustrator 29.3.0, SVG Export Plug-In . SVG Version: 2.1.0 Build 146)  -->
  <defs>
    <style>
      .st0 {
        fill: none;
      }
    </style>
  </defs>
  <rect class="st0" width="24" height="24"/>
  <path d="M16.9,4.6l-4.5,4.5-4.5-4.5c-.8-.8-2.1-.8-2.9,0s-.8,2.1,0,2.9l4.5,4.5-4.5,4.5c-.8.8-.8,2.1,0,2.9s2.1.8,2.9,0l4.5-4.5,4.5,4.5c.8.8,2.1.8,2.9,0s.8-2.1,0-2.9l-4.5-4.5,4.5-4.5c.8-.8.8-2.1,0-2.9s-2.1-.8-2.9,0Z"/>
</svg>