<?xml version="1.0" encoding="UTF-8"?>
<svg id="Layer_1" xmlns="http://www.w3.org/2000/svg" version="1.1" viewBox="0 0 24 24">
  <!-- Generator: Adobe Illustrator 29.3.0, SVG Export Plug-In . SVG Version: 2.1.0 Build 146)  -->
  <defs>
    <style>
      .st0 {
        fill: none;
      }
    </style>
  </defs>
  <rect class="st0" width="24" height="24"/>
  <path d="M11,14.9l-3.5,3.5c-.3.3-.7.4-1,.4-.4,0-.7,0-1-.4l-3.5-3.5c-.5-.5-.5-1.3,0-1.9.5-.5,1.3-.5,1.9,0l1.4,1.4V5.8c0-.7.6-1.3,1.3-1.3s1.3.6,1.3,1.3v8.5l1.4-1.4c.5-.5,1.3-.5,1.9,0s.5,1.3,0,1.9ZM22.8,6.1h0c0-.9-.7-1.5-1.5-1.5h-6.9c-.9,0-1.5.7-1.5,1.5h0c0,.9.7,1.5,1.5,1.5h6.9c.9,0,1.5-.7,1.5-1.5ZM21.3,13.2h-6.2c-.9,0-1.5-.7-1.5-1.5h0c0-.9.7-1.5,1.5-1.5h6.2c.9,0,1.5.7,1.5,1.5h0c0,.9-.7,1.5-1.5,1.5ZM21.3,18.8h-2.8c-.9,0-1.5-.7-1.5-1.5h0c0-.9.7-1.5,1.5-1.5h2.8c.9,0,1.5.7,1.5,1.5h0c0,.9-.7,1.5-1.5,1.5Z"/>
</svg>